<mxfile host="Electron" agent="Mozilla/5.0 (X11; Linux x86_64) AppleWebKit/537.36 (KHTML, like Gecko) draw.io/25.0.2 Chrome/128.0.6613.186 Electron/32.2.5 Safari/537.36" version="25.0.2" pages="2">
  <diagram name="Page-1" id="Z5_YB6Dt_VO-IfNGbrB5">
    <mxGraphModel dx="979" dy="574" grid="1" gridSize="10" guides="1" tooltips="1" connect="1" arrows="1" fold="1" page="1" pageScale="1" pageWidth="1600" pageHeight="900" math="0" shadow="0">
      <root>
        <mxCell id="0" />
        <mxCell id="1" parent="0" />
        <mxCell id="z3XlM4o20PIHCHzGxanL-3" style="rounded=0;orthogonalLoop=1;jettySize=auto;html=1;exitX=1;exitY=0.5;exitDx=0;exitDy=0;entryX=0;entryY=0.5;entryDx=0;entryDy=0;curved=1;" edge="1" parent="1" source="z3XlM4o20PIHCHzGxanL-1" target="z3XlM4o20PIHCHzGxanL-2">
          <mxGeometry relative="1" as="geometry">
            <Array as="points">
              <mxPoint x="190" y="420" />
            </Array>
          </mxGeometry>
        </mxCell>
        <mxCell id="z3XlM4o20PIHCHzGxanL-6" style="edgeStyle=none;shape=connector;curved=1;rounded=0;orthogonalLoop=1;jettySize=auto;html=1;exitX=1;exitY=0.5;exitDx=0;exitDy=0;entryX=0;entryY=0.5;entryDx=0;entryDy=0;strokeColor=default;align=center;verticalAlign=middle;fontFamily=Helvetica;fontSize=11;fontColor=default;labelBackgroundColor=default;endArrow=classic;" edge="1" parent="1" source="z3XlM4o20PIHCHzGxanL-1" target="z3XlM4o20PIHCHzGxanL-5">
          <mxGeometry relative="1" as="geometry">
            <Array as="points">
              <mxPoint x="180" y="340" />
            </Array>
          </mxGeometry>
        </mxCell>
        <mxCell id="z3XlM4o20PIHCHzGxanL-1" value="计算完成" style="rounded=0;whiteSpace=wrap;html=1;fillColor=#dae8fc;strokeColor=#6c8ebf;" vertex="1" parent="1">
          <mxGeometry x="80" y="360" width="80" height="40" as="geometry" />
        </mxCell>
        <mxCell id="z3XlM4o20PIHCHzGxanL-13" style="edgeStyle=none;shape=connector;curved=1;rounded=0;orthogonalLoop=1;jettySize=auto;html=1;exitX=1;exitY=0.5;exitDx=0;exitDy=0;entryX=0;entryY=0.5;entryDx=0;entryDy=0;strokeColor=default;align=center;verticalAlign=middle;fontFamily=Helvetica;fontSize=11;fontColor=default;labelBackgroundColor=default;endArrow=classic;" edge="1" parent="1" source="z3XlM4o20PIHCHzGxanL-2" target="z3XlM4o20PIHCHzGxanL-12">
          <mxGeometry relative="1" as="geometry" />
        </mxCell>
        <mxCell id="z3XlM4o20PIHCHzGxanL-45" style="edgeStyle=none;shape=connector;curved=1;rounded=0;orthogonalLoop=1;jettySize=auto;html=1;exitX=1;exitY=0.5;exitDx=0;exitDy=0;entryX=0;entryY=0.5;entryDx=0;entryDy=0;strokeColor=default;align=center;verticalAlign=middle;fontFamily=Helvetica;fontSize=11;fontColor=default;labelBackgroundColor=none;endArrow=classic;" edge="1" parent="1" source="z3XlM4o20PIHCHzGxanL-2" target="z3XlM4o20PIHCHzGxanL-16">
          <mxGeometry relative="1" as="geometry">
            <Array as="points">
              <mxPoint x="520" y="280" />
            </Array>
          </mxGeometry>
        </mxCell>
        <mxCell id="z3XlM4o20PIHCHzGxanL-2" value="out_ready = 1" style="rounded=0;whiteSpace=wrap;html=1;fillColor=#dae8fc;strokeColor=#6c8ebf;" vertex="1" parent="1">
          <mxGeometry x="380" y="400" width="100" height="40" as="geometry" />
        </mxCell>
        <mxCell id="z3XlM4o20PIHCHzGxanL-9" style="edgeStyle=none;shape=connector;curved=1;rounded=0;orthogonalLoop=1;jettySize=auto;html=1;exitX=1;exitY=0.5;exitDx=0;exitDy=0;entryX=0;entryY=0.5;entryDx=0;entryDy=0;strokeColor=default;align=center;verticalAlign=middle;fontFamily=Helvetica;fontSize=11;fontColor=default;labelBackgroundColor=default;endArrow=classic;" edge="1" parent="1" source="z3XlM4o20PIHCHzGxanL-5" target="z3XlM4o20PIHCHzGxanL-7">
          <mxGeometry relative="1" as="geometry" />
        </mxCell>
        <mxCell id="z3XlM4o20PIHCHzGxanL-10" style="edgeStyle=none;shape=connector;curved=1;rounded=0;orthogonalLoop=1;jettySize=auto;html=1;exitX=1;exitY=0.5;exitDx=0;exitDy=0;entryX=0;entryY=0.5;entryDx=0;entryDy=0;strokeColor=default;align=center;verticalAlign=middle;fontFamily=Helvetica;fontSize=11;fontColor=default;labelBackgroundColor=default;endArrow=classic;" edge="1" parent="1" source="z3XlM4o20PIHCHzGxanL-5" target="z3XlM4o20PIHCHzGxanL-8">
          <mxGeometry relative="1" as="geometry">
            <Array as="points">
              <mxPoint x="350" y="270" />
            </Array>
          </mxGeometry>
        </mxCell>
        <mxCell id="z3XlM4o20PIHCHzGxanL-5" value="&lt;div&gt;&lt;span style=&quot;background-color: initial;&quot;&gt;rhs buf 非空&lt;/span&gt;&lt;br&gt;&lt;/div&gt;" style="rounded=1;whiteSpace=wrap;html=1;fontFamily=Helvetica;fontSize=11;labelBackgroundColor=none;fillColor=#f8cecc;strokeColor=#b85450;" vertex="1" parent="1">
          <mxGeometry x="220" y="320" width="100" height="40" as="geometry" />
        </mxCell>
        <mxCell id="z3XlM4o20PIHCHzGxanL-15" style="edgeStyle=none;shape=connector;curved=1;rounded=0;orthogonalLoop=1;jettySize=auto;html=1;exitX=1;exitY=0.5;exitDx=0;exitDy=0;entryX=0;entryY=0.5;entryDx=0;entryDy=0;strokeColor=default;align=center;verticalAlign=middle;fontFamily=Helvetica;fontSize=11;fontColor=default;labelBackgroundColor=default;endArrow=classic;" edge="1" parent="1" source="z3XlM4o20PIHCHzGxanL-7" target="z3XlM4o20PIHCHzGxanL-12">
          <mxGeometry relative="1" as="geometry">
            <Array as="points">
              <mxPoint x="510" y="400" />
            </Array>
          </mxGeometry>
        </mxCell>
        <mxCell id="z3XlM4o20PIHCHzGxanL-17" style="edgeStyle=none;shape=connector;curved=1;rounded=0;orthogonalLoop=1;jettySize=auto;html=1;exitX=1;exitY=0.5;exitDx=0;exitDy=0;entryX=0;entryY=0.5;entryDx=0;entryDy=0;strokeColor=default;align=center;verticalAlign=middle;fontFamily=Helvetica;fontSize=11;fontColor=default;labelBackgroundColor=default;endArrow=classic;" edge="1" parent="1" source="z3XlM4o20PIHCHzGxanL-7" target="z3XlM4o20PIHCHzGxanL-16">
          <mxGeometry relative="1" as="geometry">
            <Array as="points">
              <mxPoint x="510" y="280" />
            </Array>
          </mxGeometry>
        </mxCell>
        <mxCell id="z3XlM4o20PIHCHzGxanL-7" value="lhs_ready_os = 1" style="rounded=0;whiteSpace=wrap;html=1;fillColor=#dae8fc;strokeColor=#6c8ebf;" vertex="1" parent="1">
          <mxGeometry x="380" y="320" width="100" height="40" as="geometry" />
        </mxCell>
        <mxCell id="z3XlM4o20PIHCHzGxanL-19" style="edgeStyle=none;shape=connector;curved=1;rounded=0;orthogonalLoop=1;jettySize=auto;html=1;exitX=1;exitY=0.5;exitDx=0;exitDy=0;entryX=0;entryY=0.5;entryDx=0;entryDy=0;strokeColor=default;align=center;verticalAlign=middle;fontFamily=Helvetica;fontSize=11;fontColor=default;labelBackgroundColor=default;endArrow=classic;" edge="1" parent="1" source="z3XlM4o20PIHCHzGxanL-8" target="z3XlM4o20PIHCHzGxanL-12">
          <mxGeometry relative="1" as="geometry">
            <Array as="points">
              <mxPoint x="510" y="380" />
            </Array>
          </mxGeometry>
        </mxCell>
        <mxCell id="z3XlM4o20PIHCHzGxanL-8" value="lhs_ready_os = 0" style="rounded=0;whiteSpace=wrap;html=1;fillColor=#dae8fc;strokeColor=#6c8ebf;" vertex="1" parent="1">
          <mxGeometry x="380" y="240" width="100" height="40" as="geometry" />
        </mxCell>
        <mxCell id="z3XlM4o20PIHCHzGxanL-24" style="edgeStyle=none;shape=connector;curved=1;rounded=0;orthogonalLoop=1;jettySize=auto;html=1;exitX=1;exitY=0.5;exitDx=0;exitDy=0;entryX=0;entryY=0.5;entryDx=0;entryDy=0;strokeColor=default;align=center;verticalAlign=middle;fontFamily=Helvetica;fontSize=11;fontColor=default;labelBackgroundColor=none;endArrow=classic;" edge="1" parent="1" source="z3XlM4o20PIHCHzGxanL-12" target="z3XlM4o20PIHCHzGxanL-20">
          <mxGeometry relative="1" as="geometry" />
        </mxCell>
        <mxCell id="z3XlM4o20PIHCHzGxanL-12" value="out_start" style="rounded=1;whiteSpace=wrap;html=1;fontFamily=Helvetica;fontSize=11;labelBackgroundColor=none;fillColor=#d5e8d4;strokeColor=#82b366;" vertex="1" parent="1">
          <mxGeometry x="540" y="380" width="100" height="40" as="geometry" />
        </mxCell>
        <mxCell id="z3XlM4o20PIHCHzGxanL-34" style="edgeStyle=none;shape=connector;curved=1;rounded=0;orthogonalLoop=1;jettySize=auto;html=1;exitX=1;exitY=0.5;exitDx=0;exitDy=0;entryX=0;entryY=0.5;entryDx=0;entryDy=0;strokeColor=default;align=center;verticalAlign=middle;fontFamily=Helvetica;fontSize=11;fontColor=default;labelBackgroundColor=none;endArrow=classic;" edge="1" parent="1" source="z3XlM4o20PIHCHzGxanL-16" target="z3XlM4o20PIHCHzGxanL-33">
          <mxGeometry relative="1" as="geometry" />
        </mxCell>
        <mxCell id="z3XlM4o20PIHCHzGxanL-16" value="lhs_start&lt;div&gt;os=1&lt;/div&gt;" style="rounded=1;whiteSpace=wrap;html=1;fontFamily=Helvetica;fontSize=11;labelBackgroundColor=none;fillColor=#d5e8d4;strokeColor=#82b366;" vertex="1" parent="1">
          <mxGeometry x="540" y="260" width="100" height="40" as="geometry" />
        </mxCell>
        <mxCell id="z3XlM4o20PIHCHzGxanL-20" value="out dbbuf 中，第二个也非空" style="rounded=1;whiteSpace=wrap;html=1;fontFamily=Helvetica;fontSize=11;labelBackgroundColor=none;fillColor=#f8cecc;strokeColor=#b85450;" vertex="1" parent="1">
          <mxGeometry x="680" y="380" width="100" height="40" as="geometry" />
        </mxCell>
        <mxCell id="z3XlM4o20PIHCHzGxanL-22" value="N" style="text;html=1;align=center;verticalAlign=middle;whiteSpace=wrap;rounded=0;fontFamily=Helvetica;fontSize=11;fontColor=default;labelBackgroundColor=none;" vertex="1" parent="1">
          <mxGeometry x="340" y="290" width="20" height="20" as="geometry" />
        </mxCell>
        <mxCell id="z3XlM4o20PIHCHzGxanL-23" value="Y" style="text;html=1;align=center;verticalAlign=middle;whiteSpace=wrap;rounded=0;fontFamily=Helvetica;fontSize=11;fontColor=default;labelBackgroundColor=default;" vertex="1" parent="1">
          <mxGeometry x="340" y="340" width="20" height="20" as="geometry" />
        </mxCell>
        <mxCell id="z3XlM4o20PIHCHzGxanL-25" style="edgeStyle=none;shape=connector;curved=1;rounded=0;orthogonalLoop=1;jettySize=auto;html=1;exitX=1;exitY=0.5;exitDx=0;exitDy=0;entryX=0;entryY=0.5;entryDx=0;entryDy=0;strokeColor=default;align=center;verticalAlign=middle;fontFamily=Helvetica;fontSize=11;fontColor=default;labelBackgroundColor=default;endArrow=classic;" edge="1" parent="1" target="z3XlM4o20PIHCHzGxanL-27" source="z3XlM4o20PIHCHzGxanL-20">
          <mxGeometry relative="1" as="geometry">
            <mxPoint x="820" y="470" as="sourcePoint" />
            <Array as="points">
              <mxPoint x="810" y="430" />
            </Array>
          </mxGeometry>
        </mxCell>
        <mxCell id="z3XlM4o20PIHCHzGxanL-26" style="edgeStyle=none;shape=connector;curved=1;rounded=0;orthogonalLoop=1;jettySize=auto;html=1;exitX=1;exitY=0.5;exitDx=0;exitDy=0;entryX=0;entryY=0.5;entryDx=0;entryDy=0;strokeColor=default;align=center;verticalAlign=middle;fontFamily=Helvetica;fontSize=11;fontColor=default;labelBackgroundColor=default;endArrow=classic;" edge="1" parent="1" target="z3XlM4o20PIHCHzGxanL-28" source="z3XlM4o20PIHCHzGxanL-20">
          <mxGeometry relative="1" as="geometry">
            <mxPoint x="820" y="470" as="sourcePoint" />
            <Array as="points">
              <mxPoint x="810" y="370" />
            </Array>
          </mxGeometry>
        </mxCell>
        <mxCell id="z3XlM4o20PIHCHzGxanL-27" value="lhs_ready_os = 1&lt;div&gt;os发生在out[1]中&lt;br&gt;&lt;/div&gt;" style="rounded=0;whiteSpace=wrap;html=1;fillColor=#dae8fc;strokeColor=#6c8ebf;" vertex="1" parent="1">
          <mxGeometry x="840" y="410" width="100" height="40" as="geometry" />
        </mxCell>
        <mxCell id="z3XlM4o20PIHCHzGxanL-28" value="lhs_ready_os = 0&lt;div&gt;os发生在out[0]中&lt;br&gt;&lt;/div&gt;" style="rounded=0;whiteSpace=wrap;html=1;fillColor=#dae8fc;strokeColor=#6c8ebf;" vertex="1" parent="1">
          <mxGeometry x="840" y="350" width="100" height="40" as="geometry" />
        </mxCell>
        <mxCell id="z3XlM4o20PIHCHzGxanL-29" value="N" style="text;html=1;align=center;verticalAlign=middle;whiteSpace=wrap;rounded=0;fontFamily=Helvetica;fontSize=11;fontColor=default;labelBackgroundColor=none;" vertex="1" parent="1">
          <mxGeometry x="800" y="350" width="20" height="20" as="geometry" />
        </mxCell>
        <mxCell id="z3XlM4o20PIHCHzGxanL-30" value="Y" style="text;html=1;align=center;verticalAlign=middle;whiteSpace=wrap;rounded=0;fontFamily=Helvetica;fontSize=11;fontColor=default;labelBackgroundColor=default;" vertex="1" parent="1">
          <mxGeometry x="800" y="430" width="20" height="20" as="geometry" />
        </mxCell>
        <mxCell id="z3XlM4o20PIHCHzGxanL-38" style="edgeStyle=none;shape=connector;curved=1;rounded=0;orthogonalLoop=1;jettySize=auto;html=1;exitX=1;exitY=0.5;exitDx=0;exitDy=0;entryX=0;entryY=0.5;entryDx=0;entryDy=0;strokeColor=default;align=center;verticalAlign=middle;fontFamily=Helvetica;fontSize=11;fontColor=default;labelBackgroundColor=none;endArrow=classic;" edge="1" parent="1" source="z3XlM4o20PIHCHzGxanL-33" target="z3XlM4o20PIHCHzGxanL-37">
          <mxGeometry relative="1" as="geometry">
            <Array as="points">
              <mxPoint x="810" y="250" />
            </Array>
          </mxGeometry>
        </mxCell>
        <mxCell id="z3XlM4o20PIHCHzGxanL-33" value="out dbbuf 中，第二个也非空" style="rounded=1;whiteSpace=wrap;html=1;fontFamily=Helvetica;fontSize=11;labelBackgroundColor=none;fillColor=#f8cecc;strokeColor=#b85450;" vertex="1" parent="1">
          <mxGeometry x="680" y="260" width="100" height="40" as="geometry" />
        </mxCell>
        <mxCell id="z3XlM4o20PIHCHzGxanL-35" value="out_ready = 1&lt;div&gt;os发生在out[1]中&lt;/div&gt;" style="rounded=0;whiteSpace=wrap;html=1;fillColor=#dae8fc;strokeColor=#6c8ebf;" vertex="1" parent="1">
          <mxGeometry x="840" y="290" width="100" height="40" as="geometry" />
        </mxCell>
        <mxCell id="z3XlM4o20PIHCHzGxanL-36" style="edgeStyle=none;shape=connector;curved=1;rounded=0;orthogonalLoop=1;jettySize=auto;html=1;exitX=1;exitY=0.5;exitDx=0;exitDy=0;entryX=0;entryY=0.5;entryDx=0;entryDy=0;strokeColor=default;align=center;verticalAlign=middle;fontFamily=Helvetica;fontSize=11;fontColor=default;labelBackgroundColor=none;endArrow=classic;" edge="1" parent="1" source="z3XlM4o20PIHCHzGxanL-33" target="z3XlM4o20PIHCHzGxanL-35">
          <mxGeometry relative="1" as="geometry">
            <Array as="points">
              <mxPoint x="810" y="310" />
            </Array>
          </mxGeometry>
        </mxCell>
        <mxCell id="z3XlM4o20PIHCHzGxanL-37" value="out_ready = 0&lt;div&gt;os发生在out[0]中&lt;/div&gt;" style="rounded=0;whiteSpace=wrap;html=1;fillColor=#dae8fc;strokeColor=#6c8ebf;" vertex="1" parent="1">
          <mxGeometry x="840" y="230" width="100" height="40" as="geometry" />
        </mxCell>
        <mxCell id="z3XlM4o20PIHCHzGxanL-43" value="N" style="text;html=1;align=center;verticalAlign=middle;whiteSpace=wrap;rounded=0;fontFamily=Helvetica;fontSize=11;fontColor=default;labelBackgroundColor=none;" vertex="1" parent="1">
          <mxGeometry x="800" y="230" width="20" height="20" as="geometry" />
        </mxCell>
        <mxCell id="z3XlM4o20PIHCHzGxanL-44" value="Y" style="text;html=1;align=center;verticalAlign=middle;whiteSpace=wrap;rounded=0;fontFamily=Helvetica;fontSize=11;fontColor=default;labelBackgroundColor=default;" vertex="1" parent="1">
          <mxGeometry x="800" y="310" width="20" height="20" as="geometry" />
        </mxCell>
      </root>
    </mxGraphModel>
  </diagram>
  <diagram id="nANjsePyQRXXDkFnfSMF" name="Page-2">
    <mxGraphModel dx="811" dy="476" grid="1" gridSize="10" guides="1" tooltips="1" connect="1" arrows="1" fold="1" page="1" pageScale="1" pageWidth="1600" pageHeight="900" math="0" shadow="0">
      <root>
        <mxCell id="0" />
        <mxCell id="1" parent="0" />
        <mxCell id="VKe_F9fHWtAZ0ncAFcqn-13" style="edgeStyle=orthogonalEdgeStyle;rounded=0;orthogonalLoop=1;jettySize=auto;html=1;exitX=0.5;exitY=1;exitDx=0;exitDy=0;entryX=0;entryY=0.5;entryDx=0;entryDy=0;endSize=3;" edge="1" parent="1" source="VKe_F9fHWtAZ0ncAFcqn-6" target="VKe_F9fHWtAZ0ncAFcqn-15">
          <mxGeometry relative="1" as="geometry">
            <mxPoint x="305" y="200" as="targetPoint" />
          </mxGeometry>
        </mxCell>
        <mxCell id="VKe_F9fHWtAZ0ncAFcqn-6" value="LHS" style="rounded=0;whiteSpace=wrap;html=1;fillColor=#dae8fc;strokeColor=#6c8ebf;" vertex="1" parent="1">
          <mxGeometry x="260" y="130" width="90" height="40" as="geometry" />
        </mxCell>
        <mxCell id="VKe_F9fHWtAZ0ncAFcqn-14" style="edgeStyle=orthogonalEdgeStyle;rounded=0;orthogonalLoop=1;jettySize=auto;html=1;exitX=0.5;exitY=1;exitDx=0;exitDy=0;entryX=0.5;entryY=0;entryDx=0;entryDy=0;endSize=3;" edge="1" parent="1" source="VKe_F9fHWtAZ0ncAFcqn-7" target="VKe_F9fHWtAZ0ncAFcqn-8">
          <mxGeometry relative="1" as="geometry" />
        </mxCell>
        <mxCell id="VKe_F9fHWtAZ0ncAFcqn-7" value="RHS" style="rounded=0;whiteSpace=wrap;html=1;fillColor=#dae8fc;strokeColor=#6c8ebf;" vertex="1" parent="1">
          <mxGeometry x="370" y="130" width="90" height="40" as="geometry" />
        </mxCell>
        <mxCell id="VKe_F9fHWtAZ0ncAFcqn-8" value="rhs[1]" style="rounded=0;whiteSpace=wrap;html=1;fillColor=#f8cecc;strokeColor=#b85450;" vertex="1" parent="1">
          <mxGeometry x="389.71000000000004" y="200" width="50" height="20" as="geometry" />
        </mxCell>
        <mxCell id="VKe_F9fHWtAZ0ncAFcqn-24" style="edgeStyle=orthogonalEdgeStyle;rounded=0;orthogonalLoop=1;jettySize=auto;html=1;exitX=0.5;exitY=1;exitDx=0;exitDy=0;entryX=0.5;entryY=0;entryDx=0;entryDy=0;endSize=3;" edge="1" parent="1" source="VKe_F9fHWtAZ0ncAFcqn-9" target="VKe_F9fHWtAZ0ncAFcqn-15">
          <mxGeometry relative="1" as="geometry" />
        </mxCell>
        <mxCell id="VKe_F9fHWtAZ0ncAFcqn-9" value="rhs[0]" style="rounded=0;whiteSpace=wrap;html=1;fillColor=#f8cecc;strokeColor=#b85450;" vertex="1" parent="1">
          <mxGeometry x="389.71000000000004" y="230" width="50" height="20" as="geometry" />
        </mxCell>
        <mxCell id="VKe_F9fHWtAZ0ncAFcqn-10" value="" style="endArrow=none;html=1;rounded=0;" edge="1" parent="1">
          <mxGeometry width="50" height="50" relative="1" as="geometry">
            <mxPoint x="379.71000000000004" y="260" as="sourcePoint" />
            <mxPoint x="379.71000000000004" y="190" as="targetPoint" />
          </mxGeometry>
        </mxCell>
        <mxCell id="VKe_F9fHWtAZ0ncAFcqn-11" value="" style="endArrow=none;html=1;rounded=0;" edge="1" parent="1">
          <mxGeometry width="50" height="50" relative="1" as="geometry">
            <mxPoint x="449.71000000000004" y="260" as="sourcePoint" />
            <mxPoint x="379.71000000000004" y="260" as="targetPoint" />
          </mxGeometry>
        </mxCell>
        <mxCell id="VKe_F9fHWtAZ0ncAFcqn-12" value="" style="endArrow=none;html=1;rounded=0;" edge="1" parent="1">
          <mxGeometry width="50" height="50" relative="1" as="geometry">
            <mxPoint x="449.71000000000004" y="190" as="sourcePoint" />
            <mxPoint x="449.71000000000004" y="260" as="targetPoint" />
          </mxGeometry>
        </mxCell>
        <mxCell id="VKe_F9fHWtAZ0ncAFcqn-25" style="edgeStyle=orthogonalEdgeStyle;rounded=0;orthogonalLoop=1;jettySize=auto;html=1;exitX=1;exitY=0.75;exitDx=0;exitDy=0;entryX=0.75;entryY=1;entryDx=0;entryDy=0;endSize=3;" edge="1" parent="1" source="VKe_F9fHWtAZ0ncAFcqn-15" target="VKe_F9fHWtAZ0ncAFcqn-17">
          <mxGeometry relative="1" as="geometry" />
        </mxCell>
        <mxCell id="VKe_F9fHWtAZ0ncAFcqn-27" style="edgeStyle=orthogonalEdgeStyle;rounded=0;orthogonalLoop=1;jettySize=auto;html=1;exitX=0.75;exitY=0;exitDx=0;exitDy=0;endSize=3;" edge="1" parent="1" source="VKe_F9fHWtAZ0ncAFcqn-15">
          <mxGeometry relative="1" as="geometry">
            <mxPoint x="445" y="260" as="targetPoint" />
          </mxGeometry>
        </mxCell>
        <mxCell id="VKe_F9fHWtAZ0ncAFcqn-15" value="SpMM" style="rounded=1;whiteSpace=wrap;html=1;fillColor=#dae8fc;strokeColor=#6c8ebf;fontStyle=1" vertex="1" parent="1">
          <mxGeometry x="355" y="320" width="120" height="60" as="geometry" />
        </mxCell>
        <mxCell id="VKe_F9fHWtAZ0ncAFcqn-22" style="edgeStyle=orthogonalEdgeStyle;rounded=0;orthogonalLoop=1;jettySize=auto;html=1;exitX=0.5;exitY=0;exitDx=0;exitDy=0;entryX=0.5;entryY=1;entryDx=0;entryDy=0;endSize=3;" edge="1" parent="1" source="VKe_F9fHWtAZ0ncAFcqn-16" target="VKe_F9fHWtAZ0ncAFcqn-21">
          <mxGeometry relative="1" as="geometry" />
        </mxCell>
        <mxCell id="VKe_F9fHWtAZ0ncAFcqn-16" value="out[0]" style="rounded=0;whiteSpace=wrap;html=1;fillColor=#f8cecc;strokeColor=#b85450;" vertex="1" parent="1">
          <mxGeometry x="500.00000000000006" y="200" width="50" height="20" as="geometry" />
        </mxCell>
        <mxCell id="VKe_F9fHWtAZ0ncAFcqn-26" style="edgeStyle=orthogonalEdgeStyle;rounded=0;orthogonalLoop=1;jettySize=auto;html=1;exitX=0.25;exitY=1;exitDx=0;exitDy=0;entryX=1;entryY=0.25;entryDx=0;entryDy=0;endSize=3;" edge="1" parent="1" source="VKe_F9fHWtAZ0ncAFcqn-17" target="VKe_F9fHWtAZ0ncAFcqn-15">
          <mxGeometry relative="1" as="geometry" />
        </mxCell>
        <mxCell id="VKe_F9fHWtAZ0ncAFcqn-17" value="out[1]" style="rounded=0;whiteSpace=wrap;html=1;fillColor=#f8cecc;strokeColor=#b85450;" vertex="1" parent="1">
          <mxGeometry x="500.00000000000006" y="230" width="50" height="20" as="geometry" />
        </mxCell>
        <mxCell id="VKe_F9fHWtAZ0ncAFcqn-18" value="" style="endArrow=none;html=1;rounded=0;" edge="1" parent="1">
          <mxGeometry width="50" height="50" relative="1" as="geometry">
            <mxPoint x="490.00000000000006" y="260" as="sourcePoint" />
            <mxPoint x="490.00000000000006" y="190" as="targetPoint" />
          </mxGeometry>
        </mxCell>
        <mxCell id="VKe_F9fHWtAZ0ncAFcqn-19" value="" style="endArrow=none;html=1;rounded=0;" edge="1" parent="1">
          <mxGeometry width="50" height="50" relative="1" as="geometry">
            <mxPoint x="560" y="190" as="sourcePoint" />
            <mxPoint x="490.00000000000006" y="190" as="targetPoint" />
          </mxGeometry>
        </mxCell>
        <mxCell id="VKe_F9fHWtAZ0ncAFcqn-20" value="" style="endArrow=none;html=1;rounded=0;" edge="1" parent="1">
          <mxGeometry width="50" height="50" relative="1" as="geometry">
            <mxPoint x="560" y="190" as="sourcePoint" />
            <mxPoint x="560" y="260" as="targetPoint" />
          </mxGeometry>
        </mxCell>
        <mxCell id="VKe_F9fHWtAZ0ncAFcqn-21" value="OUT" style="rounded=0;whiteSpace=wrap;html=1;fillColor=#dae8fc;strokeColor=#6c8ebf;" vertex="1" parent="1">
          <mxGeometry x="480" y="130" width="90" height="40" as="geometry" />
        </mxCell>
        <mxCell id="VKe_F9fHWtAZ0ncAFcqn-29" value="LHS 总是&lt;div&gt;流式读入&lt;/div&gt;" style="text;html=1;align=center;verticalAlign=middle;whiteSpace=wrap;rounded=0;" vertex="1" parent="1">
          <mxGeometry x="240" y="210" width="60" height="30" as="geometry" />
        </mxCell>
        <mxCell id="VKe_F9fHWtAZ0ncAFcqn-31" value="ws" style="text;html=1;align=center;verticalAlign=middle;whiteSpace=wrap;rounded=0;" vertex="1" parent="1">
          <mxGeometry x="439.71" y="270" width="30.29" height="20" as="geometry" />
        </mxCell>
        <mxCell id="VKe_F9fHWtAZ0ncAFcqn-32" value="os" style="text;html=1;align=center;verticalAlign=middle;whiteSpace=wrap;rounded=0;" vertex="1" parent="1">
          <mxGeometry x="490" y="270" width="30.29" height="20" as="geometry" />
        </mxCell>
        <mxCell id="VKe_F9fHWtAZ0ncAFcqn-33" value="&lt;div&gt;rhs_start，向 rhs buf 队尾添加矩阵&lt;/div&gt;ws，rhs buf 不取出队首&lt;div&gt;os，在 out buf 队尾 inplace 修改&lt;/div&gt;&lt;div&gt;out_start，从 out buf 队首取出元素&lt;/div&gt;" style="text;html=1;align=left;verticalAlign=middle;whiteSpace=wrap;rounded=0;" vertex="1" parent="1">
          <mxGeometry x="570" y="280" width="200" height="70" as="geometry" />
        </mxCell>
      </root>
    </mxGraphModel>
  </diagram>
</mxfile>
